# Blender 5.0.1
# www.blender.org
mtllib Home.mtl
o Cube
v 10.999998 0.000000 -97.000000
v 10.999998 -1.000000 -97.000000
v 10.999998 0.000000 10.000000
v 10.999998 -1.000000 10.000000
v -5.000002 0.000000 -97.000000
v -5.000002 -1.000000 -97.000000
v -5.000002 0.000000 10.000000
v -5.000002 -1.000000 10.000000
v 22.999998 0.000000 -97.000000
v 22.999998 -1.000000 -97.000000
v 22.999998 0.000000 10.000000
v 22.999998 -1.000000 10.000000
v 32.999996 0.000000 -97.000000
v 32.999996 -1.000000 -97.000000
v 32.999996 0.000000 10.000000
v 32.999996 -1.000000 10.000000
v 42.999996 0.000000 -97.000000
v 42.999996 -1.000000 -97.000000
v 42.999996 0.000000 10.000000
v 42.999996 -1.000000 10.000000
v 52.999996 0.000000 -97.000000
v 52.999996 -1.000000 -97.000000
v 52.999996 0.000000 10.000000
v 52.999996 -1.000000 10.000000
v 62.999996 0.000000 -97.000000
v 62.999996 -1.000000 -97.000000
v 62.999996 0.000000 10.000000
v 62.999996 -1.000000 10.000000
v 73.000000 0.000000 -97.000000
v 73.000000 -1.000000 -97.000000
v 73.000000 0.000000 10.000000
v 73.000000 -1.000000 10.000000
v 83.000000 0.000000 -97.000000
v 83.000000 -1.000000 -97.000000
v 83.000000 0.000000 10.000000
v 83.000000 -1.000000 10.000000
v 93.000000 0.000000 -97.000000
v 93.000000 -1.000000 -97.000000
v 93.000000 0.000000 10.000000
v 93.000000 -1.000000 10.000000
v 103.000000 0.000000 -97.000000
v 103.000000 -1.000000 -97.000000
v 103.000000 0.000000 10.000000
v 103.000000 -1.000000 10.000000
vn -0.0000 1.0000 -0.0000
vn -0.0000 -0.0000 1.0000
vn -1.0000 -0.0000 -0.0000
vn -0.0000 -1.0000 -0.0000
vn -0.0000 -0.0000 -1.0000
vn 1.0000 -0.0000 -0.0000
vt -34.685184 50.037041
vt -49.500000 50.037041
vt -49.500000 -49.037037
vt -34.685184 -49.037037
vt -34.685184 0.037036
vt -34.685184 0.962961
vt -49.500000 0.962961
vt -49.500000 0.037036
vt -49.037037 0.037036
vt -49.037037 0.962961
vt 50.037041 0.962961
vt 50.037041 0.037036
vt -23.574074 0.037036
vt -23.574074 0.962961
vt -23.574074 -49.037037
vt -23.574074 50.037041
vt -14.314815 50.037041
vt -14.314815 -49.037037
vt -5.055555 -49.037037
vt -5.055555 50.037041
vt -14.314815 0.037036
vt -14.314815 0.962961
vt 4.203701 -49.037037
vt 4.203701 50.037041
vt -5.055555 0.962961
vt -5.055555 0.037036
vt 13.462961 50.037041
vt 13.462961 -49.037037
vt 4.203701 0.962961
vt 4.203701 0.037036
vt 22.722221 -49.037037
vt 22.722221 50.037041
vt 13.462961 0.037036
vt 13.462961 0.962961
vt 22.722221 0.037036
vt 22.722221 0.962961
vt 31.981480 0.962961
vt 31.981480 0.037036
vt 31.981480 -49.037037
vt 31.981480 50.037041
vt 41.240742 50.037041
vt 41.240742 -49.037037
vt 50.500000 -49.037037
vt 50.500000 50.037041
vt 41.240742 0.037036
vt 41.240742 0.962961
vt 50.500000 0.962961
vt 50.500000 0.037036
s 0
usemtl Material
f 1/1/1 5/2/1 7/3/1 3/4/1
f 4/5/2 3/6/2 7/7/2 8/8/2
f 8/9/3 7/10/3 5/11/3 6/12/3
f 6/2/4 2/1/4 4/4/4 8/3/4
f 3/6/2 4/5/2 12/13/2 11/14/2
f 6/8/5 5/7/5 1/6/5 2/5/5
f 12/15/4 10/16/4 14/17/4 16/18/4
f 2/5/5 1/6/5 9/14/5 10/13/5
f 4/4/4 2/1/4 10/16/4 12/15/4
f 1/1/1 3/4/1 11/15/1 9/16/1
f 13/17/1 15/18/1 19/19/1 17/20/1
f 11/14/2 12/13/2 16/21/2 15/22/2
f 9/16/1 11/15/1 15/18/1 13/17/1
f 10/13/5 9/14/5 13/22/5 14/21/5
f 17/20/1 19/19/1 23/23/1 21/24/1
f 14/21/5 13/22/5 17/25/5 18/26/5
f 16/18/4 14/17/4 18/20/4 20/19/4
f 15/22/2 16/21/2 20/26/2 19/25/2
f 24/23/4 22/24/4 26/27/4 28/28/4
f 18/26/5 17/25/5 21/29/5 22/30/5
f 20/19/4 18/20/4 22/24/4 24/23/4
f 19/25/2 20/26/2 24/30/2 23/29/2
f 25/27/1 27/28/1 31/31/1 29/32/1
f 23/29/2 24/30/2 28/33/2 27/34/2
f 21/24/1 23/23/1 27/28/1 25/27/1
f 22/30/5 21/29/5 25/34/5 26/33/5
f 30/35/5 29/36/5 33/37/5 34/38/5
f 26/33/5 25/34/5 29/36/5 30/35/5
f 28/28/4 26/27/4 30/32/4 32/31/4
f 27/34/2 28/33/2 32/35/2 31/36/2
f 36/39/4 34/40/4 38/41/4 40/42/4
f 32/31/4 30/32/4 34/40/4 36/39/4
f 31/36/2 32/35/2 36/38/2 35/37/2
f 29/32/1 31/31/1 35/39/1 33/40/1
f 37/41/1 39/42/1 43/43/1 41/44/1
f 35/37/2 36/38/2 40/45/2 39/46/2
f 33/40/1 35/39/1 39/42/1 37/41/1
f 34/38/5 33/37/5 37/46/5 38/45/5
f 42/12/6 41/11/6 43/10/6 44/9/6
f 38/45/5 37/46/5 41/47/5 42/48/5
f 40/42/4 38/41/4 42/44/4 44/43/4
f 39/46/2 40/45/2 44/48/2 43/47/2
